<?xml version="1.0" encoding="utf-8"?>
<svg xmlns="http://www.w3.org/2000/svg" viewBox="111.4185 158.3639 169.3196 117.2023" width="169.32px" height="117.202px" preserveAspectRatio="none"><path style="stroke-width: 1.19183; fill: rgb(247, 247, 247);" d="m 38.619318,155.94122 c -2.091782,-1.07173 -2.059823,-3.23929 0.07468,-5.06015 2.067912,-1.76412 4.835097,-2.8715 10.807353,-4.32486 2.238796,-0.54483 4.513694,-1.27064 5.055325,-1.61294 2.399284,-1.51627 12.156066,-14.33782 18.187185,-23.90008 7.937137,-12.58426 16.388379,-28.850153 22.848562,-43.97607 1.194519,-2.79687 2.387657,-5.210874 2.651428,-5.364453 0.263761,-0.153579 0.856722,-0.189851 1.317686,-0.08061 0.804213,0.1906 0.831203,0.253611 0.667493,1.558832 -0.0938,0.74811 -1.07428,3.519835 -2.178784,6.159386 -8.772742,20.965345 -22.162694,44.405235 -33.736658,59.057995 -1.496717,1.89487 -3.093208,3.97586 -3.547736,4.62442 -1.181417,1.68576 -0.843518,1.87577 2.631189,1.4796 6.955783,-0.79308 11.566112,-1.01175 21.139592,-1.00271 15.697087,0.0148 28.757457,1.04631 44.643337,3.52584 11.1197,1.73559 12.02634,1.96276 11.63887,2.91622 -0.20898,0.51425 -1.00686,0.45603 -6.37787,-0.46545 -8.65145,-1.48429 -19.06087,-2.65996 -29.76223,-3.36147 -8.556138,-0.56087 -31.117192,-0.47786 -38.9314,0.14325 -3.389591,0.26942 -6.568738,0.56596 -7.06477,0.65899 -1.54875,0.29046 -2.565402,0.93771 -5.259094,3.34826 -3.422412,3.06267 -6.036083,4.79558 -8.334868,5.5262 -2.205086,0.70085 -5.255823,0.77149 -6.469215,0.1498 z m 5.73311,-2.37044 c 1.898498,-0.90494 3.799658,-2.30364 5.072059,-3.73153 l 0.816999,-0.91683 -1.486219,0.21045 c -3.033499,0.42956 -7.033538,2.26675 -7.948987,3.65093 -0.187221,0.28307 -0.257204,0.76218 -0.155538,1.06469 0.27059,0.80503 1.646815,0.70178 3.701686,-0.27771 z m 39.131916,-19.61129 c -0.405845,-0.38322 -0.601248,-0.94625 -0.601248,-1.73233 0,-2.51374 3.642639,-10.75816 4.753279,-10.75816 0.713029,0 1.258087,0.54455 1.264403,1.26324 0.0026,0.32007 -0.765008,2.46928 -1.706261,4.77601 -1.325888,3.24931 -1.63057,4.27038 -1.352592,4.53286 0.277964,0.26247 0.589928,0.22125 1.38491,-0.18301 0.996276,-0.50662 4.904615,-4.16609 8.295806,-7.76753 1.382041,-1.46772 1.829393,-1.76994 2.619931,-1.76994 1.582892,0 1.661421,0.62267 0.502461,3.98362 -1.056965,3.06517 -1.257823,4.36682 -0.722077,4.67948 0.746849,0.43585 7.912124,-3.99503 8.680264,-5.36774 1.61646,-2.88864 4.2879,-3.3208 3.31465,-0.5362 -0.18631,0.53308 -0.28255,1.02232 -0.21386,1.08719 0.0687,0.0649 1.04737,-0.34461 2.17485,-0.90994 2.64971,-1.32858 4.28354,-1.77823 5.40058,-1.48627 1.66422,0.43496 1.76292,1.32767 0.46519,4.20734 -0.50231,1.11461 -0.83254,2.14994 -0.73383,2.30072 0.3334,0.5094 1.35018,0.27873 3.70987,-0.84157 1.81868,-0.86345 2.6159,-1.44542 3.52572,-2.57375 1.31051,-1.62526 3.2851,-3.13063 5.97778,-4.55732 3.17456,-1.68199 6.33423,-1.16824 6.11025,0.99349 -0.072,0.69317 -0.24497,0.88317 -0.86705,0.95145 -0.43255,0.0475 -0.94889,-0.1099 -1.16417,-0.35484 -0.61665,-0.70162 -1.59297,-0.51962 -3.51933,0.65606 -2.23154,1.36193 -5.20664,4.74774 -5.21039,5.92968 -0.004,1.06927 2.11249,-0.0202 5.40386,-2.78233 2.2824,-1.91543 3.3588,-2.40532 4.27154,-1.94408 0.54567,0.27576 0.59114,0.4675 0.38721,1.63233 -0.12709,0.72592 -0.24508,1.76696 -0.2622,2.31341 -0.0294,0.93708 0.0287,0.99826 1.02109,1.07613 0.74916,0.0588 1.44419,-0.1527 2.41316,-0.73425 1.12786,-0.67694 1.64273,-1.31366 3.00628,-3.71783 2.29665,-4.04939 3.14889,-5.14029 4.01579,-5.14029 0.51172,0 0.82057,0.24476 1.09327,0.86644 0.24005,0.54724 0.53392,0.81068 0.79772,0.71509 2.7466,-0.99525 5.91996,-1.1845 6.4571,-0.38511 0.55246,0.82217 0.26453,2.24421 -0.62435,3.08355 -1.30443,1.23172 -1.82691,1.1037 -1.82691,-0.44765 0,-1.21892 -0.0397,-1.27744 -0.86763,-1.27744 -1.97279,0 -5.18953,2.69447 -8.72659,7.30978 -1.32649,1.73086 -1.71445,2.05808 -2.4401,2.05808 -0.47456,0 -0.98266,-0.20218 -1.12909,-0.44928 -0.22848,-0.38551 -0.45185,-0.40211 -1.57348,-0.11691 -2.35787,0.59953 -4.02943,-0.1182 -4.37955,-1.8805 l -0.18863,-0.94936 -1.69618,1.25758 c -2.19054,1.62412 -3.53951,2.13847 -5.60839,2.13847 -1.37944,0 -1.80762,-0.12355 -2.41467,-0.69677 -0.40586,-0.38323 -0.73791,-0.88401 -0.73791,-1.11284 0,-0.31452 -0.45863,-0.19784 -1.87893,0.47801 -1.47056,0.69976 -2.2676,0.89536 -3.66718,0.89994 -1.63474,0.006 -1.82795,-0.0604 -2.2508,-0.7656 -0.42049,-0.70131 -0.41348,-0.93362 0.0772,-2.55487 0.92652,-3.06159 0.95814,-3.38025 0.31389,-3.16261 -0.92066,0.311 -4.23626,2.60604 -6.9786,4.83056 -2.57558,2.08926 -3.67263,2.5201 -4.47874,1.7589 -0.2589,-0.24447 -0.19028,-0.61072 0.27617,-1.4741 l 0.62066,-1.14879 -0.8624,0.53499 c -4.827696,2.9949 -6.607848,3.2998 -8.188311,1.40254 -0.352417,-0.42304 -0.64075,-1.13517 -0.64075,-1.58251 0,-0.44733 -0.145973,-0.81335 -0.324394,-0.81335 -0.178431,0 -1.331145,0.82911 -2.561615,1.84244 -1.230455,1.01334 -2.770122,2.09917 -3.421468,2.41294 -1.574447,0.75847 -3.713456,0.75976 -4.51515,0.003 z m 93.909166,-23.9768 c -0.0982,-0.24178 0.18105,-0.82643 0.64185,-1.34354 0.81096,-0.91004 0.81203,-0.91711 0.18078,-1.18308 -0.81537,-0.34355 -0.83571,-1.47879 -0.0337,-1.88405 0.43208,-0.21836 0.7805,-0.21328 1.23825,0.018 0.53807,0.2719 0.61448,0.51075 0.49191,1.5376 -0.212,1.77602 -2.09171,3.90647 -2.51901,2.85501 z m -69.1045,-2.76113 c -0.2069,-0.53964 -2.25753,-9.016162 -2.25753,-9.331802 0,-0.146435 0.4456,-0.266242 0.9902,-0.266242 h 0.9902 l 0.72527,3.406494 c 0.39889,1.87358 0.80671,3.40651 0.90626,3.40651 0.0996,0 0.57107,-1.53293 1.04783,-3.40651 l 0.86684,-3.406494 h 0.92086 0.92085 l 0.86484,3.193594 c 0.47566,1.75648 0.95857,3.29252 1.07313,3.41344 0.11452,0.12092 0.44392,-0.83716 0.73189,-2.12906 0.99881,-4.480784 0.99753,-4.477974 2.03362,-4.477974 0.7993,0 0.90691,0.08701 0.79001,0.638717 -0.0744,0.351293 -0.59753,2.592187 -1.1624,4.979767 l -1.02707,4.34104 -1.18149,-0.0829 -1.18149,-0.0829 -0.88705,-3.06186 c -0.48788,-1.68403 -0.96145,-2.99161 -1.05241,-2.90572 -0.091,0.0858 -0.52448,1.46372 -0.96342,3.06186 l -0.79805,2.90572 -1.1041,0.0883 c -0.70857,0.0567 -1.15522,-0.045 -1.24679,-0.28388 z m 12.17266,-3.35279 v -3.69038 h 0.90188 0.90189 v 3.69038 3.69036 h -0.90189 -0.90188 z m 5.1325,2.9424 c -0.51038,-0.6127 -0.62306,-1.15176 -0.62306,-2.98068 0,-2.04348 -0.0509,-2.23274 -0.60127,-2.23274 -0.44093,0 -0.60126,-0.18924 -0.60126,-0.70967 0,-0.52044 0.16033,-0.70969 0.60126,-0.70969 0.46765,0 0.60127,-0.189245 0.60127,-0.851628 0,-0.784033 0.0835,-0.851621 1.05219,-0.851621 0.9687,0 1.05221,0.06759 1.05221,0.851621 0,0.784028 0.0835,0.851628 1.05219,0.851628 0.92193,0 1.05221,0.0878 1.05221,0.70969 0,0.63094 -0.12511,0.70962 -1.12736,0.70905 l -1.12736,-6.5e-4 0.10274,2.05809 c 0.10723,2.14934 0.36403,2.56351 1.43214,2.31037 0.48279,-0.11442 0.68179,0.006 0.81793,0.49843 0.22769,0.82219 -0.20837,1.08589 -1.80491,1.09141 -1.00174,0.003 -1.38191,-0.14698 -1.87893,-0.74361 z m 5.36928,0.53506 c -0.0106,-0.11709 -0.0153,-2.44842 -0.008,-5.18072 l 0.0106,-4.967806 0.91141,-0.08896 0.91142,-0.08896 V 99.0689 c 0,1.93283 0.0299,2.0237 0.52612,1.60141 1.30327,-1.109051 3.59095,-0.821177 4.24494,0.53418 0.1868,0.38712 0.33963,1.97528 0.33963,3.52925 v 2.82538 h -0.90189 -0.90188 v -2.25251 c 0,-2.93505 -0.3085,-3.70886 -1.47865,-3.70886 -1.39702,0 -1.82827,0.85193 -1.82827,3.61161 v 2.34976 H 131.887 c -0.49603,0 -0.91099,-0.0958 -0.92212,-0.2129 z m 12.94725,-4.7549 v -4.967814 h 0.89364 0.89362 l 0.0834,4.045224 0.0834,4.04521 2.32986,0.0829 2.32988,0.0829 v 0.83967 0.83969 h -3.30692 -3.30692 z m 9.54875,4.52344 c -2.44017,-1.25024 -2.28381,-5.60908 0.242,-6.74643 1.28753,-0.579759 2.23841,-0.598473 3.57692,-0.0704 2.44126,0.96317 2.87522,4.82876 0.73314,6.53075 -1.07273,0.85233 -3.18746,0.98521 -4.55206,0.28605 z m 3.47716,-1.52848 c 0.13706,-0.12617 0.32359,-0.75315 0.41452,-1.39329 0.21808,-1.53534 -0.47676,-2.59525 -1.70137,-2.59525 -1.28691,0 -1.81832,0.66493 -1.81832,2.27519 0,1.11112 0.13297,1.47181 0.67642,1.83475 0.66175,0.44196 1.88314,0.38091 2.42875,-0.1214 z m 6.05214,1.618 c -0.0788,-0.19517 -0.73764,-1.86279 -1.46402,-3.70583 l -1.3207,-3.351 1.0656,0.0864 c 1.05157,0.0854 1.07753,0.11901 1.97129,2.55973 0.49814,1.36031 0.99775,2.41958 1.11025,2.35392 0.11253,-0.0657 0.5969,-1.21058 1.07644,-2.54426 0.86346,-2.40142 0.88171,-2.42488 1.88512,-2.42488 0.70985,0 0.96814,0.11092 0.86266,0.37045 -0.0828,0.20374 -0.72809,1.86443 -1.43398,3.69037 l -1.28346,3.31992 h -1.16294 c -0.6535,0 -1.22573,-0.15545 -1.30626,-0.35485 z m 7.90715,-0.0895 c -1.08424,-0.55551 -1.73343,-1.79641 -1.72797,-3.30288 0.005,-1.56261 0.49413,-2.45495 1.80372,-3.29515 0.86265,-0.553448 1.28642,-0.642052 2.398,-0.50135 1.79985,0.22783 2.72724,1.12224 2.93066,2.82641 l 0.15648,1.31084 h -2.61536 c -2.52902,0 -2.61218,0.0208 -2.51927,0.62923 0.0528,0.34608 0.46466,0.82398 0.91519,1.06198 0.74712,0.39472 0.90928,0.38691 1.8447,-0.0888 0.85524,-0.43492 1.14051,-0.46342 1.7179,-0.17163 l 0.69236,0.34989 -0.96349,0.8129 c -0.7795,0.65767 -1.23527,0.81072 -2.38673,0.80153 -0.78279,-0.006 -1.79357,-0.20111 -2.24619,-0.433 z m 3.67892,-4.3815 c 0,-0.45605 -1.15714,-1.41938 -1.70495,-1.41938 -0.62284,0 -1.60197,0.80768 -1.60197,1.32144 0,0.27356 0.46882,0.38181 1.65346,0.38181 0.90939,0 1.65346,-0.12774 1.65346,-0.28387 z m -54.26805,-4.271787 c -0.25063,-0.745682 0.33076,-1.405755 1.23818,-1.405755 0.50118,0 0.76307,0.203312 0.89338,0.693553 0.24966,0.939256 -0.0441,1.293572 -1.07225,1.293572 -0.60661,0 -0.92209,-0.17315 -1.05931,-0.58137 z" id="path2" transform="matrix(1.1849509477615359, 0, 0, 1.381993055343628, 67.49055162934675, 59.46989457636916)"/></svg>