<svg version="1.0" xmlns="http://www.w3.org/2000/svg" width="600.000000pt" height="473.000000pt" viewBox="0 0 600.000000 473.000000" preserveAspectRatio="xMidYMid meet" style="width: 268.594px; height: auto;"> <g transform="translate(0.000000,473.000000) scale(0.100000,-0.100000)" fill="#000000" stroke="none"> <path d="M3557 3890 c-84 -15 -174 -64 -242 -134 -66 -69 -150 -190 -204 -296 -86 -167 -154 -227 -288 -255 -67 -14 -75 -14 -136 5 -81 25 -158 90 -182 155 -38 98 -2 243 84 338 41 46 121 87 169 87 39 0 87 -23 101 -47 7 -14 13 -15 21 -7 14 14 -1 48 -34 76 -31 27 -117 20 -192 -17 -77 -37 -167 -128 -202 -202 -34 -73 -35 -161 -4 -243 59 -153 190 -210 397 -175 50 8 96 16 103 17 6 1 12 8 12 15 0 8 -5 11 -12 7 -7 -4 -8 -3 -4 4 4 7 14 12 22 12 8 0 14 4 14 8 0 5 12 14 26 20 14 7 22 17 19 22 -4 6 -1 9 7 8 7 -2 12 3 11 10 -4 17 7 15 31 -5 17 -15 18 -15 8 -2 -9 12 -10 24 -3 42 5 14 7 28 4 31 -4 3 -1 6 6 6 7 0 21 20 32 45 12 27 25 43 31 39 6 -4 8 -3 5 3 -10 16 13 74 26 66 5 -3 7 -1 3 5 -10 17 10 24 24 8 14 -18 -5 -60 -22 -50 -7 4 -8 3 -4 -4 4 -7 4 -18 -1 -24 -8 -13 -9 -18 -12 -40 -1 -8 -7 -5 -16 6 -8 11 -15 15 -15 10 0 -6 5 -15 12 -22 9 -9 9 -15 -3 -24 -8 -7 -22 -22 -29 -32 -13 -18 -13 -19 0 -12 11 6 11 4 -1 -6 -17 -14 -10 -39 21 -66 10 -9 10 -11 1 -6 -7 3 -17 0 -22 -7 -7 -11 -9 -11 -9 -1 0 10 -4 10 -15 -2 -9 -8 -21 -14 -28 -12 -7 1 -9 1 -5 -1 8 -5 -71 -133 -83 -133 -5 0 -6 -7 -3 -15 5 -11 2 -13 -10 -9 -17 7 -16 46 2 81 21 39 12 47 -14 12 -14 -19 -80 -126 -147 -239 -111 -187 -130 -214 -222 -305 -82 -82 -116 -108 -185 -143 -172 -86 -355 -105 -544 -58 -119 31 -182 64 -245 130 -70 75 -95 145 -95 271 -1 97 0 104 37 178 29 59 51 87 94 123 165 134 372 178 551 118 231 -77 308 -193 256 -389 -30 -118 -70 -148 -186 -142 -85 4 -99 -6 -49 -36 35 -21 102 -22 140 -3 32 17 94 83 114 123 23 44 40 141 32 189 -16 110 -127 249 -239 300 -94 43 -196 59 -301 46 -244 -28 -402 -135 -471 -319 -46 -121 -40 -264 15 -371 35 -68 109 -149 175 -190 143 -91 291 -113 541 -81 172 22 331 95 441 204 75 73 132 156 271 390 159 269 142 248 209 266 32 10 121 35 197 58 76 23 140 41 144 41 3 0 -1 -8 -9 -17 -16 -19 -50 -76 -268 -443 -73 -124 -178 -301 -234 -395 -56 -93 -119 -199 -140 -235 l-39 -65 -96 47 c-146 72 -253 99 -386 99 -165 0 -280 -39 -362 -120 -62 -62 -78 -102 -78 -196 0 -64 5 -90 24 -128 51 -105 140 -157 282 -165 203 -11 359 57 556 242 l91 86 129 -82 c70 -45 157 -97 193 -115 207 -103 677 -120 867 -31 45 21 93 69 93 94 0 19 -3 18 -54 -16 -24 -17 -75 -42 -113 -57 -64 -25 -78 -27 -228 -27 -219 -1 -357 30 -535 119 -117 59 -303 183 -297 198 3 7 61 102 129 212 147 236 321 535 443 765 152 283 139 266 225 304 93 40 161 85 197 132 40 53 44 142 10 217 -26 57 -62 89 -124 111 -52 18 -148 25 -206 16z m237 -77 c44 -30 86 -101 86 -143 0 -41 -45 -125 -83 -154 -19 -15 -71 -42 -114 -60 l-80 -33 13 36 c17 48 17 173 0 214 -15 36 -79 97 -101 97 -23 0 -18 -24 11 -51 30 -28 64 -98 64 -131 -1 -65 -87 -179 -159 -210 -59 -26 -239 -78 -268 -78 -24 0 -32 27 -14 46 5 5 44 70 86 144 111 193 180 275 279 326 94 49 207 48 280 -3z m-320 12 c-10 -8 -23 -14 -29 -14 -5 0 -1 6 9 14 11 8 24 15 30 15 5 0 1 -7 -10 -15z m-49 -15 c-3 -5 0 -10 7 -10 7 0 -2 -10 -19 -21 -18 -12 -30 -26 -26 -32 3 -6 1 -7 -5 -3 -7 4 -12 1 -12 -8 0 -18 -16 -21 -25 -6 -4 6 -11 7 -17 4 -7 -5 -8 -2 -4 5 5 7 15 10 24 6 9 -3 13 -3 9 1 -11 11 23 44 47 45 13 0 16 3 7 6 -11 5 -11 7 0 14 18 11 22 11 14 -1z m-94 -121 c-12 -10 -28 -16 -34 -12 -7 4 -8 0 -4 -11 7 -17 -40 -92 -51 -82 -3 3 1 13 9 22 13 16 12 16 -8 3 -15 -9 -19 -17 -13 -23 12 -12 13 -56 1 -56 -17 0 -31 28 -24 46 3 11 26 42 50 70 23 28 41 54 38 57 -3 4 -2 5 1 2 4 -2 13 3 22 11 11 11 18 12 26 4 8 -8 5 -16 -13 -31z m-837 -94 c-4 -8 -11 -15 -16 -15 -6 0 -5 6 2 15 7 8 14 15 16 15 2 0 1 -7 -2 -15z m-33 -82 c-12 -20 -14 -14 -5 12 4 9 9 14 11 11 3 -2 0 -13 -6 -23z m1135 -52 c-1 -41 -7 -65 -19 -79 -9 -10 -14 -23 -10 -28 5 -5 -3 0 -16 11 l-24 20 14 -24 c11 -18 11 -25 2 -28 -7 -3 -13 -13 -13 -23 0 -10 -6 -25 -13 -32 -7 -7 -14 -17 -15 -23 -6 -30 -14 -45 -23 -40 -5 4 -10 0 -11 -7 0 -7 -2 -18 -2 -24 -1 -6 -6 -18 -12 -25 -7 -8 -24 -39 -39 -69 -15 -30 -34 -59 -41 -63 -8 -4 -14 -16 -14 -25 0 -10 -5 -23 -12 -30 -7 -7 -9 -12 -4 -12 4 0 -3 -15 -16 -32 -13 -18 -23 -35 -24 -38 -3 -18 -21 -48 -40 -68 -13 -13 -24 -33 -26 -45 -2 -12 -9 -21 -15 -20 -6 2 -11 -5 -11 -15 1 -20 -67 -134 -75 -126 -3 3 -4 -3 -3 -13 0 -10 -5 -17 -12 -15 -8 1 -11 -2 -8 -7 4 -5 2 -12 -4 -16 -5 -3 -10 -14 -10 -24 0 -10 -9 -26 -20 -36 -14 -13 -20 -14 -20 -5 0 7 -3 10 -6 7 -4 -4 -1 -13 6 -22 7 -9 8 -15 2 -15 -5 0 -15 -14 -21 -32 -6 -17 -14 -28 -18 -24 -4 4 -13 -8 -19 -26 -6 -18 -17 -32 -24 -30 -6 1 -9 -2 -6 -7 7 -11 -32 -81 -45 -81 -4 0 -5 -7 -2 -17 4 -11 3 -14 -5 -9 -7 4 -12 1 -12 -8 0 -9 -4 -16 -9 -16 -5 0 -11 -9 -14 -21 -4 -13 -10 -18 -18 -13 -8 4 -10 3 -5 -4 4 -6 2 -21 -4 -33 -10 -18 -8 -25 16 -50 15 -16 33 -29 39 -29 6 0 24 -13 40 -30 16 -16 33 -30 38 -30 4 0 23 -11 40 -24 18 -13 42 -27 55 -31 12 -3 20 -11 16 -16 -3 -6 2 -9 12 -7 12 2 19 -3 18 -12 -1 -10 9 -15 30 -15 24 0 31 -4 30 -18 -2 -14 1 -15 13 -5 9 7 17 8 21 2 12 -16 84 -40 130 -43 7 -1 11 -5 8 -10 -4 -5 3 -7 14 -4 12 3 20 0 20 -7 0 -7 8 -9 23 -5 18 5 19 4 6 -4 -12 -8 -34 -6 -75 5 -33 9 -68 17 -79 18 -46 7 -104 30 -98 39 4 6 0 8 -11 4 -11 -4 -25 2 -41 17 -13 13 -26 22 -29 19 -3 -3 -16 4 -30 15 -14 10 -22 22 -18 26 3 4 -1 4 -10 1 -11 -5 -27 3 -44 20 -15 15 -40 32 -55 37 -17 6 -26 15 -22 21 4 6 0 8 -10 4 -26 -10 -20 2 6 13 17 8 14 8 -14 4 -24 -4 -39 -1 -44 7 -6 8 -4 10 5 4 9 -5 11 -4 6 3 -4 8 -18 9 -34 5 -15 -3 -32 -6 -39 -6 -7 0 -12 -6 -11 -13 2 -7 -16 -30 -39 -52 -24 -21 -43 -37 -43 -35 0 3 -7 -2 -15 -11 -8 -8 -15 -19 -15 -25 0 -5 -5 -13 -12 -17 -7 -5 -8 -3 -3 7 5 8 0 7 -12 -3 -11 -10 -28 -18 -39 -18 -14 0 -15 -3 -6 -9 11 -6 11 -9 0 -17 -35 -25 -76 -43 -82 -36 -4 4 -6 0 -4 -8 1 -8 -4 -15 -12 -15 -8 0 -17 -3 -20 -6 -8 -11 -81 -39 -76 -30 3 5 19 14 36 21 16 7 27 17 23 23 -3 5 -1 7 4 4 6 -4 19 3 29 14 10 11 24 17 31 14 8 -2 12 -1 9 3 -6 10 57 72 73 72 6 0 11 5 11 11 0 5 5 7 12 3 6 -4 8 -3 5 2 -3 6 -1 16 4 24 8 13 10 13 20 0 9 -13 10 -12 5 3 -8 25 4 44 15 26 7 -11 9 -11 9 2 0 9 13 32 30 50 37 43 57 91 33 82 -12 -5 -15 -2 -11 9 3 8 1 15 -5 15 -7 0 -29 8 -50 18 -32 15 -36 20 -25 33 12 13 10 14 -11 3 -19 -10 -22 -10 -16 0 6 9 2 11 -12 7 -11 -3 -30 3 -44 13 -13 10 -31 19 -40 19 -9 0 -16 6 -16 14 0 12 6 13 36 1 48 -18 75 -26 79 -25 1 0 17 -7 35 -16 29 -16 30 -18 12 -26 -16 -7 -14 -7 7 -3 15 3 30 0 33 -6 4 -6 13 -8 21 -5 8 3 14 2 14 -3 0 -12 39 -21 46 -10 3 5 10 6 16 3 6 -4 8 -2 5 3 -4 6 0 14 8 17 8 3 14 11 13 18 -2 7 3 12 10 11 12 -3 16 8 13 40 -1 9 3 17 8 17 6 0 11 5 11 11 0 6 14 28 30 49 17 21 30 45 30 53 0 19 26 41 39 32 7 -3 8 0 5 9 -3 9 -10 13 -15 10 -5 -3 3 15 19 39 17 28 30 40 34 33 8 -11 12 4 9 30 -2 17 39 55 52 47 7 -4 6 1 -2 10 -8 10 -11 21 -7 24 4 4 11 1 16 -7 6 -9 10 -10 10 -3 0 6 -5 15 -10 18 -7 4 -2 18 12 35 13 16 34 47 47 69 14 22 29 37 34 34 6 -3 7 -1 3 5 -7 12 30 91 49 104 6 4 10 11 11 15 0 4 6 20 14 35 10 22 16 25 27 16 11 -9 12 -6 3 16 -6 18 -6 25 0 21 6 -3 10 2 10 12 1 23 30 63 31 42 0 -8 5 2 11 21 5 19 19 42 30 52 12 10 22 26 23 36 2 21 37 82 48 82 4 0 7 5 7 11 0 6 10 25 22 42 13 18 16 28 7 23 -7 -4 -3 2 11 14 14 12 19 19 12 15 -13 -7 -12 28 1 41 4 4 1 14 -5 23 -7 9 -9 13 -5 10 9 -7 67 47 67 62 0 7 22 49 26 49 0 0 0 -27 0 -59z m-1136 9 c0 -5 -4 -10 -10 -10 -5 0 -10 5 -10 10 0 6 5 10 10 10 6 0 10 -4 10 -10z m1041 -93 c-6 -8 -8 -17 -5 -20 4 -3 -3 -5 -14 -4 -20 1 -20 2 -4 18 20 21 40 25 23 6z m-1001 -62 c7 -9 8 -15 2 -15 -5 0 -12 7 -16 15 -3 8 -4 15 -2 15 2 0 9 -7 16 -15z m-507 -2 c-7 -2 -19 -2 -25 0 -7 3 -2 5 12 5 14 0 19 -2 13 -5z m70 0 c-7 -2 -21 -2 -30 0 -10 3 -4 5 12 5 17 0 24 -2 18 -5z m76 -9 c2 -2 -7 -4 -22 -4 -14 0 -29 5 -32 10 -6 10 42 4 54 -6z m-254 -13 c-3 -6 -15 -11 -25 -11 -10 0 -22 -5 -25 -10 -4 -6 -16 -8 -27 -4 -15 4 -18 3 -13 -6 5 -9 4 -11 -3 -6 -6 4 -20 -2 -32 -14 -11 -11 -27 -20 -36 -20 -17 0 -140 -99 -137 -110 1 -4 -4 -7 -12 -7 -18 0 20 51 51 68 13 7 24 19 24 27 0 7 5 12 12 10 7 -3 21 5 33 16 23 24 123 68 136 60 5 -3 9 0 9 6 0 7 7 10 15 7 8 -4 17 -2 21 4 3 6 8 8 11 5 3 -2 2 -9 -2 -15z m48 12 c-7 -2 -19 -2 -25 0 -7 3 -2 5 12 5 14 0 19 -2 13 -5z m252 -3 c3 -5 -1 -10 -9 -10 -9 0 -16 5 -16 10 0 6 4 10 9 10 6 0 13 -4 16 -10z m40 -18 c-3 -3 -11 0 -18 7 -9 10 -8 11 6 5 10 -3 15 -9 12 -12z m339 -43 c-3 -5 -10 -7 -15 -3 -5 3 -7 10 -3 15 3 5 10 7 15 3 5 -3 7 -10 3 -15z m389 -187 c-4 -18 -8 -20 -14 -10 -6 9 -9 5 -9 -13 0 -14 -9 -34 -20 -44 -10 -9 -24 -33 -30 -51 -12 -35 -25 -43 -33 -21 -3 6 -4 2 -4 -10 1 -12 5 -19 10 -16 11 7 -22 -46 -45 -71 -10 -11 -18 -26 -18 -33 0 -8 -7 -16 -15 -19 -8 -4 -15 -13 -15 -20 0 -8 -7 -17 -15 -20 -8 -4 -13 -9 -10 -14 7 -12 -66 -92 -80 -86 -7 2 -18 -1 -24 -7 -8 -8 -11 -8 -11 0 0 14 13 23 42 28 12 3 26 10 32 16 8 8 5 8 -11 0 -23 -12 -34 1 -13 14 6 4 7 11 4 17 -4 7 -2 8 4 4 7 -4 12 -1 12 9 0 9 5 13 10 10 6 -3 10 0 10 8 0 16 77 138 94 149 6 5 7 8 1 8 -5 0 -1 7 9 15 11 8 17 18 13 21 -3 3 0 12 6 19 9 10 16 10 27 1 13 -9 13 -9 2 5 -13 17 -7 49 10 49 6 0 8 7 4 15 -3 8 -2 15 2 15 4 0 18 18 32 40 19 32 27 38 37 28 7 -8 10 -23 6 -36z m-1407 6 c-9 -12 -16 -19 -16 -15 0 11 24 47 28 42 2 -2 -3 -14 -12 -27z m1091 -447 c26 22 12 -8 -17 -36 -16 -16 -30 -26 -30 -23 0 3 -13 -6 -29 -21 -16 -15 -47 -33 -70 -41 -22 -7 -38 -17 -35 -21 3 -5 -3 -6 -12 -2 -10 4 -15 2 -11 -3 3 -5 -3 -10 -14 -10 -19 0 -18 1 3 18 13 10 31 20 40 23 10 4 46 33 80 65 38 36 67 55 72 50 6 -6 15 -5 23 1z m-250 -167 c-3 -3 -12 -4 -19 -1 -8 3 -5 6 6 6 11 1 17 -2 13 -5z m-34 -141 c-7 -2 -19 -2 -25 0 -7 3 -2 5 12 5 14 0 19 -2 13 -5z m84 -8 c42 -18 46 -18 38 -4 -4 6 2 5 14 -3 22 -14 28 -28 11 -28 -5 0 -10 4 -10 10 0 5 -6 7 -13 4 -7 -2 -30 4 -52 15 -47 24 -40 27 12 6z m-21 -35 c78 -20 324 -133 324 -148 0 -16 -235 -238 -287 -270 -86 -55 -156 -75 -263 -76 -86 -1 -100 2 -155 29 -47 24 -66 41 -90 79 -28 45 -30 57 -30 142 0 87 2 94 31 135 81 111 279 157 470 109z m1071 -456 c-3 -3 -12 -4 -19 -1 -8 3 -5 6 6 6 11 1 17 -2 13 -5z" class=""></path> <path d="M3690 3516 c7 -7 13 -7 20 0 6 6 3 10 -10 10 -13 0 -16 -4 -10 -10z"></path> <path d="M3560 3400 c-6 -11 -8 -20 -6 -20 3 0 10 9 16 20 6 11 8 20 6 20 -3 0 -10 -9 -16 -20z"></path> <path d="M2996 2463 c-6 -14 -5 -15 5 -6 7 7 10 15 7 18 -3 3 -9 -2 -12 -12z"></path> <path d="M2976 2402 c-3 -5 1 -9 9 -9 8 0 12 4 9 9 -3 4 -7 8 -9 8 -2 0 -6 -4 -9 -8z"></path> <path d="M2906 2305 c-3 -8 -1 -15 4 -15 6 0 10 7 10 15 0 8 -2 15 -4 15 -2 0 -6 -7 -10 -15z"></path> <path d="M2766 2103 c-6 -14 -5 -15 5 -6 7 7 10 15 7 18 -3 3 -9 -2 -12 -12z"></path> <path d="M2750 2069 c0 -5 5 -7 10 -4 6 3 10 8 10 11 0 2 -4 4 -10 4 -5 0 -10 -5 -10 -11z"></path> <path d="M2752 2034 c-7 -8 -8 -14 -3 -14 10 0 25 19 20 25 -2 1 -10 -3 -17 -11z"></path> <path d="M3000 1980 c0 -5 5 -10 11 -10 5 0 7 5 4 10 -3 6 -8 10 -11 10 -2 0 -4 -4 -4 -10z"></path> <path d="M3250 1856 c0 -2 7 -7 16 -10 8 -3 12 -2 9 4 -6 10 -25 14 -25 6z"></path> <path d="M2588 2592 c-16 -17 -16 -18 1 -18 9 0 18 8 18 18 2 21 2 21 -19 0z"></path> <path d="M1969 2113 c-13 -16 -12 -17 4 -4 16 13 21 21 13 21 -2 0 -10 -8 -17 -17z"></path> <path d="M2643 2075 c0 -8 4 -12 9 -9 5 3 6 10 3 15 -9 13 -12 11 -12 -6z"></path> <path d="M3215 3759 c-4 -6 -5 -12 -2 -15 2 -3 7 2 10 11 7 17 1 20 -8 4z"></path> <path d="M2626 3702 c-3 -5 1 -9 9 -9 8 0 12 4 9 9 -3 4 -7 8 -9 8 -2 0 -6 -4 -9 -8z"></path> <path d="M3896 3463 c-6 -14 -5 -15 5 -6 7 7 10 15 7 18 -3 3 -9 -2 -12 -12z"></path> <path d="M3029 3253 c-13 -16 -12 -17 4 -4 16 13 21 21 13 21 -2 0 -10 -8 -17 -17z"></path> <path d="M3005 3180 c-3 -5 -1 -10 4 -10 6 0 11 5 11 10 0 6 -2 10 -4 10 -3 0 -8 -4 -11 -10z"></path> <path d="M2640 2805 c0 -2 6 -8 13 -14 10 -8 14 -7 14 2 0 8 -6 14 -14 14 -7 0 -13 -1 -13 -2z"></path> <path d="M2407 2549 c7 -7 15 -10 18 -7 3 3 -2 9 -12 12 -14 6 -15 5 -6 -5z"></path> <path d="M1546 2502 c-2 -4 4 -8 14 -8 10 0 16 4 14 8 -3 4 -9 8 -14 8 -5 0 -11 -4 -14 -8z"></path> <path d="M4136 1907 c3 -10 9 -15 12 -12 3 3 0 11 -7 18 -10 9 -11 8 -5 -6z"></path> <path d="M3446 1597 c3 -10 9 -15 12 -12 3 3 0 11 -7 18 -10 9 -11 8 -5 -6z"></path> <path d="M2610 1553 c-7 -16 -21 -52 -31 -82 -11 -30 -26 -62 -35 -72 -14 -15 -12 -17 16 -21 28 -4 43 6 20 14 -6 2 -6 17 2 41 10 31 16 37 40 37 22 0 31 -6 39 -27 5 -15 8 -36 5 -48 -4 -17 0 -20 24 -20 34 0 35 2 16 24 -7 9 -26 53 -42 99 -16 45 -31 82 -35 82 -3 0 -12 -12 -19 -27z m18 -71 c-27 -5 -30 1 -17 34 l11 29 12 -30 c11 -27 11 -30 -6 -33z"></path> <path d="M2757 1568 c-33 -25 -19 -69 31 -97 49 -26 60 -44 42 -66 -19 -23 -66 -19 -84 7 -14 20 -16 20 -16 4 0 -24 28 -45 60 -46 38 0 70 27 70 59 0 31 -13 45 -63 70 -42 21 -44 55 -2 59 18 3 33 -2 41 -13 7 -9 14 -12 17 -8 18 30 -64 55 -96 31z"></path> <path d="M2880 1568 c0 -5 5 -8 10 -8 15 0 13 -153 -2 -168 -9 -9 -3 -12 27 -12 30 1 36 3 24 10 -9 5 -16 24 -17 45 l-1 35 54 0 55 0 0 -34 c0 -19 -5 -38 -10 -41 -18 -11 -1 -22 25 -17 19 3 23 8 16 15 -15 15 -14 150 1 165 9 9 3 12 -27 11 -22 -1 -32 -3 -22 -6 12 -3 17 -15 17 -39 l0 -34 -55 0 c-53 0 -55 1 -55 27 0 14 6 34 14 42 13 14 11 16 -20 16 -19 0 -34 -3 -34 -7z"></path> <path d="M3465 1570 c-3 -5 0 -10 7 -12 19 -7 11 -140 -9 -155 -21 -16 -65 -17 -81 -1 -17 17 -16 155 1 161 6 3 -6 5 -28 5 -22 0 -34 -2 -27 -5 8 -3 12 -28 12 -73 0 -81 17 -108 72 -116 30 -5 41 -2 62 19 23 23 26 34 26 96 0 47 4 71 13 74 6 2 0 6 -16 9 -15 3 -30 2 -32 -2z"></path> <path d="M3801 1534 c-12 -25 -26 -64 -33 -85 -6 -22 -17 -44 -25 -50 -20 -17 -16 -24 17 -24 30 0 40 10 19 17 -9 3 -9 13 0 41 11 31 17 37 41 37 24 0 30 -6 40 -36 10 -30 10 -38 -1 -45 -9 -6 -1 -9 25 -9 36 0 38 1 24 18 -9 9 -28 52 -43 95 -15 43 -31 80 -36 83 -4 2 -17 -16 -28 -42z m38 -41 c1 -7 -8 -13 -19 -13 -23 0 -23 0 -9 37 10 26 12 27 19 8 5 -11 9 -26 9 -32z"></path> <path d="M3930 1568 c0 -4 5 -10 10 -13 6 -3 10 -39 10 -80 0 -41 -4 -77 -10 -80 -19 -12 -10 -20 20 -20 30 0 39 8 20 20 -5 3 -10 42 -10 86 l0 80 38 -3 c30 -2 38 -7 40 -26 5 -30 -14 -52 -44 -52 -13 0 -24 -4 -24 -10 0 -5 11 -10 25 -10 19 0 29 -9 42 -34 14 -30 59 -64 70 -52 2 2 -6 15 -19 28 -13 14 -31 35 -41 47 -17 21 -17 23 4 40 29 23 20 64 -18 80 -29 12 -113 11 -113 -1z"></path> <path d="M2388 1563 c8 -3 12 -31 12 -88 0 -57 -4 -85 -12 -88 -7 -3 19 -6 58 -6 57 -1 73 2 78 15 10 27 7 39 -7 21 -6 -10 -29 -20 -50 -24 l-37 -6 0 86 c0 59 4 87 13 90 6 3 -6 5 -28 5 -22 0 -34 -2 -27 -5z"></path> <path d="M3178 1563 c16 -6 17 -154 0 -171 -9 -9 3 -12 55 -12 55 0 68 3 77 19 15 28 12 39 -5 17 -9 -12 -28 -19 -52 -20 l-38 -1 -3 75 c-2 62 0 77 14 87 16 11 13 13 -22 12 -21 0 -33 -3 -26 -6z"></path> <path d="M3538 1563 c16 -6 17 -154 0 -171 -9 -9 -4 -12 22 -12 22 0 30 3 22 8 -8 6 -14 35 -15 80 -2 40 -3 72 -2 72 1 0 32 -38 70 -85 37 -47 69 -85 70 -85 2 0 3 41 4 92 1 61 6 95 14 100 7 4 -3 7 -23 7 -19 0 -29 -3 -22 -6 8 -3 12 -27 12 -70 l0 -65 -56 71 c-45 57 -62 71 -83 70 -14 0 -20 -3 -13 -6z"></path> <path d="M2720 1206 c0 -2 8 -10 18 -17 15 -13 16 -12 3 4 -13 16 -21 21 -21 13z"></path> <path d="M2876 1202 c-3 -5 1 -9 9 -9 8 0 12 4 9 9 -3 4 -7 8 -9 8 -2 0 -6 -4 -9 -8z"></path> <path d="M3460 1200 c0 -5 5 -10 11 -10 5 0 7 5 4 10 -3 6 -8 10 -11 10 -2 0 -4 -4 -4 -10z"></path> <path d="M3604 1201 c13 -21 44 -32 52 -19 4 7 3 10 -1 5 -5 -4 -19 0 -33 9 -13 9 -21 11 -18 5z"></path> <path d="M3834 1196 c1 -8 5 -18 8 -22 4 -3 5 1 4 10 -1 8 -5 18 -8 22 -4 3 -5 -1 -4 -10z"></path> <path d="M3863 1195 c0 -8 4 -12 9 -9 5 3 6 10 3 15 -9 13 -12 11 -12 -6z"></path> <path d="M3960 1201 c0 -6 4 -13 10 -16 6 -3 7 1 4 9 -7 18 -14 21 -14 7z"></path> <path d="M3995 1199 c-3 -4 2 -6 10 -5 21 3 28 13 10 13 -9 0 -18 -4 -20 -8z"></path> <path d="M2191 1177 c-13 -21 -12 -21 5 -5 10 10 16 20 13 22 -3 3 -11 -5 -18 -17z"></path> <path d="M3205 1191 c-3 -5 -2 -12 3 -15 5 -3 9 1 9 9 0 17 -3 19 -12 6z"></path> <path d="M3313 1185 c0 -8 4 -12 9 -9 5 3 6 10 3 15 -9 13 -12 11 -12 -6z"></path> <path d="M1960 1126 l0 -56 35 0 c19 0 35 5 35 10 0 6 -14 10 -30 10 -30 0 -31 1 -27 40 2 22 0 43 -4 46 -5 3 -9 -20 -9 -50z"></path> <path d="M2532 1128 l-2 -58 36 0 c21 0 33 4 29 10 -3 6 -17 10 -30 10 -21 0 -24 5 -28 48 -3 46 -3 46 -5 -10z"></path> <path d="M2782 1125 c1 -47 2 -52 7 -25 4 26 11 35 26 35 15 0 22 -9 27 -35 l6 -35 -1 40 c-2 36 -5 40 -29 43 -15 2 -29 11 -31 20 -3 9 -5 -10 -5 -43z"></path> <path d="M2941 1171 c-8 -5 -11 -16 -6 -30 4 -12 2 -21 -4 -21 -15 0 -14 -40 2 -42 59 -7 75 -3 73 20 -1 14 -6 20 -14 17 -21 -8 -35 5 -21 21 11 14 6 44 -8 44 -4 0 -14 -4 -22 -9z m29 -21 c0 -5 -4 -10 -10 -10 -5 0 -10 5 -10 10 0 6 5 10 10 10 6 0 10 -4 10 -10z m0 -45 c11 -13 8 -15 -14 -15 -25 0 -33 10 -19 23 10 11 19 8 33 -8z"></path> <path d="M3077 1173 c-4 -3 -7 -28 -7 -55 l0 -49 36 3 c38 3 72 36 48 45 -7 2 -9 13 -7 25 4 11 0 24 -8 29 -17 10 -53 12 -62 2z m61 -25 c-7 -20 -48 -23 -48 -4 0 11 9 16 26 16 16 0 24 -5 22 -12z m3 -43 c0 -5 -12 -11 -26 -13 -18 -2 -25 1 -25 13 0 12 7 15 25 13 14 -2 26 -7 26 -13z"></path> <path d="M3524 1129 c-14 -28 -22 -54 -19 -57 4 -4 11 1 16 11 13 22 55 22 68 0 6 -10 11 -13 11 -5 0 13 -40 102 -46 102 -2 0 -15 -23 -30 -51z m46 -11 c0 -5 -9 -8 -20 -8 -18 0 -19 3 -9 21 9 17 13 19 20 8 5 -8 9 -17 9 -21z"></path> <path d="M3750 1170 c0 -5 5 -10 10 -10 6 0 10 5 10 10 0 6 -4 10 -10 10 -5 0 -10 -4 -10 -10z"></path> <path d="M2195 1150 c-14 -15 -21 -17 -32 -9 -7 7 -17 9 -20 5 -4 -4 -1 -11 7 -16 12 -8 13 -13 3 -30 -19 -29 -16 -36 6 -16 18 17 20 17 29 -1 6 -10 14 -15 18 -10 4 4 -1 15 -10 26 -11 12 -14 21 -7 26 11 6 35 45 28 45 -2 0 -12 -9 -22 -20z"></path> <path d="M3688 1158 c-9 -27 7 -83 25 -86 9 -2 17 1 17 7 0 6 -7 11 -15 11 -22 0 -20 50 3 51 13 0 14 2 2 6 -8 3 -18 10 -21 15 -3 5 -8 4 -11 -4z"></path> <path d="M3870 1155 c-8 -9 -8 -15 0 -20 6 -3 8 -11 5 -16 -10 -15 5 -49 21 -49 8 0 14 5 14 10 0 6 -4 10 -10 10 -12 0 -13 47 -1 52 5 2 3 8 -4 15 -10 10 -16 9 -25 -2z"></path> <path d="M2047 1150 c-19 -39 4 -80 43 -77 28 2 30 5 30 40 0 20 -4 37 -10 37 -5 0 -10 -13 -10 -30 0 -23 -5 -30 -19 -30 -16 0 -21 8 -23 38 -3 25 -6 32 -11 22z"></path> <path d="M2443 1140 c-6 -14 -12 -31 -15 -39 -2 -9 -9 -2 -17 17 -8 18 -17 32 -22 32 -5 0 0 -18 11 -41 l21 -41 -20 -5 c-25 -6 -28 -26 -4 -21 19 4 67 93 60 112 -3 6 -9 0 -14 -14z"></path> <path d="M3645 1151 c-3 -6 -11 -9 -16 -6 -5 4 -9 -12 -9 -34 0 -23 5 -41 10 -41 6 0 10 13 10 28 0 15 5 33 12 40 6 6 9 14 6 17 -3 4 -9 1 -13 -4z"></path> <path d="M3801 1147 c-19 -19 -12 -34 17 -43 l27 -7 -30 -7 c-25 -6 -27 -8 -12 -14 9 -5 24 -5 33 -2 23 9 13 39 -16 47 -25 6 -21 10 20 21 10 3 8 6 -7 10 -12 3 -26 1 -32 -5z"></path> <path d="M4048 1132 c-15 -38 -24 -40 -32 -7 -4 14 -11 25 -16 25 -13 0 -12 -10 5 -40 19 -33 19 -50 0 -50 -8 0 -15 -4 -15 -10 0 -12 11 -13 26 -2 16 11 58 101 51 109 -4 4 -13 -8 -19 -25z"></path> <path d="M2232 1118 c-1 -21 1 -39 6 -39 4 -1 19 -2 35 -3 25 -2 27 1 27 36 0 21 -5 38 -11 38 -6 0 -9 -7 -5 -15 8 -22 -4 -45 -24 -45 -14 0 -20 9 -23 33 -4 31 -4 31 -5 -5z"></path> <path d="M2330 1107 c0 -22 4 -36 10 -32 5 3 7 12 3 21 -3 8 2 23 12 34 16 18 16 19 -4 17 -17 -1 -21 -8 -21 -40z"></path> <path d="M2610 1139 c0 -6 7 -8 16 -5 9 3 21 3 27 -1 7 -4 2 -9 -13 -13 -37 -9 -34 -45 3 -45 16 0 28 3 28 8 -1 4 -1 21 -1 37 0 27 -3 30 -30 30 -16 0 -30 -5 -30 -11z m50 -38 c0 -12 -28 -22 -34 -12 -3 5 -3 11 1 15 9 9 33 7 33 -3z"></path> <path d="M2700 1132 c0 -11 10 -24 23 -30 21 -10 21 -11 -8 -12 -29 -1 -29 -2 -8 -12 17 -8 26 -8 38 2 22 18 19 29 -10 36 -14 3 -25 11 -25 16 0 6 9 8 20 5 11 -3 20 -1 20 4 0 5 -11 9 -25 9 -18 0 -25 -5 -25 -18z"></path> <path d="M3187 1143 c-11 -10 -8 -73 3 -73 6 0 10 13 10 30 0 17 7 33 18 39 15 9 15 10 -4 11 -11 0 -24 -3 -27 -7z"></path> <path d="M3244 1124 c-8 -33 15 -59 44 -50 46 15 34 76 -14 76 -17 0 -25 -7 -30 -26z m54 -12 c3 -16 -2 -22 -17 -22 -24 0 -33 13 -25 35 9 23 38 14 42 -13z"></path> <path d="M3330 1144 c0 -16 24 -74 31 -74 4 0 11 12 17 28 l9 27 16 -30 16 -30 16 39 c9 21 14 41 11 44 -3 3 -11 -10 -18 -29 l-12 -34 -8 33 c-10 38 -25 42 -34 7 -7 -30 -24 -33 -24 -6 0 11 -4 23 -10 26 -5 3 -10 3 -10 -1z"></path> <path d="M3750 1109 c0 -24 4 -38 10 -34 6 3 10 22 10 41 0 19 -4 34 -10 34 -5 0 -10 -18 -10 -41z"></path> <path d="M3941 1108 c2 -34 3 -37 6 -13 2 17 12 36 21 43 14 11 13 12 -6 12 -19 0 -22 -5 -21 -42z"></path> <path d="M2463 1087 c0 -8 6 -14 14 -14 9 0 10 4 2 14 -6 7 -12 13 -14 13 -1 0 -2 -6 -2 -13z"></path> </g> </svg>